:SAMPLES-PER-SECOND 30
:FULLY-SPECIFIED
:DEGREES
891
root  -38.3568 38.9787 -20.1906 8.27026 66.9031 12.021
RightUpLeg  -14.383 5.34336 -13.2507
RightLeg  63.5771 4.69555 9.6118
RightFoot  4.09264 -1.22938 9.27097
RightToes  -8.14909e-010 0 -3.6325e-017
Spine  9.26829 0.744274 -1.34581
Spine1  8.98366 2.04386 -7.75667
HEad  -24.3131 -53.6714 12.8367
LeftShoulder1  0.193961 2.93148 -27.7187
LeftArm  -2.41062 18.0464 -39.1803
LeftForeArm  26.582 -19.8236 -4.0732
LeftHand  0.0047186 7.28021 2.51277
RightShoulder  -0.284024 -4.56314 19.6311
RightArm  -12.2466 33.1565 21.5366
RightForeArm  29.4064 14.1002 0.683983
RightHand  0.0619654 4.94536 0.386136
LeftUpLeg  -13.8663 7.56516 -8.61553
LeftLeg  21.8035 7.93175 2.91401
LeftFoot  -5.69391 -0.329988 7.3947
LeftToes  1.648e-009 -9.21574e-011 2.55256e-011
892
root  -37.1717 39.1236 -20.1004 7.93512 67.9 11.4086
RightUpLeg  -18.5331 5.53168 -12.0654
RightLeg  63.0909 4.95772 10.0116
RightFoot  2.77123 -1.25669 10.2502
RightToes  -8.14909e-010 0 -3.6325e-017
Spine  9.1257 0.612114 -1.70097
Spine1  8.97915 1.66251 -6.89276
HEad  -22.0188 -54.5977 11.4354
LeftShoulder1  0.193261 2.92549 -27.2511
LeftArm  -2.11557 17.0302 -39.7561
LeftForeArm  25.626 -21.2538 -3.81227
LeftHand  0.00100919 7.16135 2.48012
RightShoulder  -0.315157 -4.68221 19.6245
RightArm  -12.4582 33.1509 21.6229
RightForeArm  28.7084 14.4895 0.730651
RightHand  0.0576625 4.23573 0.415853
LeftUpLeg  -11.573 6.40849 -8.42246
LeftLeg  20.8892 8.38228 2.37023
LeftFoot  -7.42945 -0.216856 7.63754
LeftToes  1.648e-009 -9.21574e-011 2.55256e-011
893
root  -35.958 39.3019 -20.0211 7.15042 68.9449 10.571
RightUpLeg  -21.427 5.2097 -10.639
RightLeg  58.7937 4.64492 7.82257
RightFoot  1.33837 -1.00433 9.16034
RightToes  -8.14909e-010 0 -3.6325e-017
Spine  9.28722 0.484743 -1.48455
Spine1  8.54369 1.43583 -6.12936
HEad  -22.1176 -56.5027 12.5405
LeftShoulder1  0.236206 2.79329 -27.0553
LeftArm  -2.6641 16.5817 -39.9197
LeftForeArm  25.5764 -23.7539 -3.75519
LeftHand  -0.00238427 7.67325 1.9651
RightShoulder  -0.303309 -4.64334 19.4755
RightArm  -12.7555 32.6563 21.8314
RightForeArm  27.8027 14.6832 0.69497
RightHand  0.0769519 5.24992 0.527681
LeftUpLeg  -8.59479 5.32219 -8.17527
LeftLeg  19.157 8.75345 1.73922
LeftFoot  -8.78315 -0.115165 7.50657
LeftToes  1.648e-009 -9.21574e-011 2.55256e-011
894
root  -34.742 39.4262 -19.9466 6.97726 70.4109 10.167
RightUpLeg  -23.1048 3.93813 -9.39407
RightLeg  51.0429 4.01003 4.9718
RightFoot  -1.37078 -0.891713 10.0578
RightToes  -8.14909e-010 0 -3.6325e-017
Spine  9.08353 0.0511183 -1.23403
Spine1  8.31688 0.974279 -5.52452
HEad  -21.07 -57.8918 12.4331
LeftShoulder1  0.209511 2.86821 -26.7707
LeftArm  -3.63905 16.303 -39.6838
LeftForeArm  26.0645 -26.8809 -4.37546
LeftHand  -0.00597863 6.14298 3.4205
RightShoulder  -0.297793 -4.61524 19.6375
RightArm  -12.9206 32.6393 22.1564
RightForeArm  27.858 14.4801 0.57719
RightHand  0.120671 5.24961 1.00675
LeftUpLeg  -5.90306 4.49705 -8.23582
LeftLeg  17.4788 8.3562 1.23428
LeftFoot  -9.94784 -0.0301664 7.43163
LeftToes  1.648e-009 -9.21574e-011 2.55256e-011
895
root  -33.4984 39.4954 -19.8606 6.97968 71.6844 9.90625
RightUpLeg  -23.611 2.80321 -8.07769
RightLeg  40.5123 3.0243 2.52293
RightFoot  -1.93155 -0.772532 9.21164
RightToes  -8.14909e-010 0 -3.6325e-017
Spine  8.88259 -0.132512 -1.0477
Spine1  8.01128 0.721969 -4.66217
HEad  -20.8306 -58.3482 12.311
LeftShoulder1  0.252211 2.73913 -26.8334
LeftArm  -3.94357 15.9472 -39.1269
LeftForeArm  26.3329 -29.9161 -5.0525
LeftHand  0.00694867 6.31665 4.46864
RightShoulder  -0.341575 -4.76091 20.1003
RightArm  -12.5876 32.8417 21.9137
RightForeArm  28.1675 14.0698 0.568098
RightHand  0.151101 5.02534 1.37636
LeftUpLeg  -3.18838 4.4149 -8.25551
LeftLeg  15.7332 7.29761 0.517979
LeftFoot  -11.1008 0.0506704 7.7446
LeftToes  1.648e-009 -9.21574e-011 2.55256e-011
896
root  -32.2214 39.4975 -19.7502 7.4469 72.6678 10.2095
RightUpLeg  -22.8702 1.50079 -6.84939
RightLeg  27.7925 1.98536 0.911983
RightFoot  -2.09412 -0.740727 8.96762
RightToes  -8.14909e-010 0 -3.6325e-017
Spine  8.38214 -0.148094 -0.743408
Spine1  8.21356 0.732321 -4.15385
HEad  -21.8513 -58.8758 13.1238
LeftShoulder1  0.304633 2.56847 -26.3697
LeftArm  -4.97215 15.6983 -39.3095
LeftForeArm  27.6515 -32.7743 -5.65967
LeftHand  0.00835594 6.23408 5.04128
RightShoulder  -0.355581 -4.8027 20.3207
RightArm  -12.7989 32.6388 21.6794
RightForeArm  28.649 14.0212 0.489217
RightHand  0.147206 5.21545 1.29217
LeftUpLeg  -0.378258 4.53086 -8.38985
LeftLeg  14.0838 6.26639 -0.0856921
LeftFoot  -12.332 0.142789 7.93476
LeftToes  1.648e-009 -9.21574e-011 2.55256e-011
897
root  -30.903 39.4385 -19.637 9.0527 73.6386 11.6165
RightUpLeg  -21.6279 -1.16708 -5.52802
RightLeg  15.1258 2.87432 0.529703
RightFoot  -2.53454 -0.767953 9.72538
RightToes  -8.14909e-010 0 -3.6325e-017
Spine  7.59109 -0.28558 -0.521324
Spine1  8.70823 0.583288 -3.6709
HEad  -22.5595 -58.6534 13.6
LeftShoulder1  0.236636 2.77947 -26.4716
LeftArm  -5.89083 15.0748 -39.1592
LeftForeArm  28.6727 -34.7923 -6.11432
LeftHand  -0.00930987 5.71126 5.52762
RightShoulder  -0.299862 -4.60293 20.1251
RightArm  -13.4276 31.9865 21.6233
RightForeArm  29.3658 14.4976 0.393825
RightHand  0.120961 4.30256 1.16904
LeftUpLeg  2.45359 4.67457 -8.74793
LeftLeg  12.3725 5.2286 -0.683148
LeftFoot  -13.5497 0.234454 7.9288
LeftToes  1.648e-009 -9.21574e-011 2.55256e-011
898
root  -29.5322 39.2792 -19.4659 11.0698 75.1407 13.5601
RightUpLeg  -20.5929 -5.07964 -3.89379
RightLeg  6.19048 5.97455 0.485861
RightFoot  -2.71685 -0.829936 10.7301
RightToes  -8.14909e-010 0 -3.6325e-017
Spine  7.21659 -0.48717 -0.413927
Spine1  8.42713 0.293994 -3.28738
HEad  -24.085 -59.0634 14.7041
LeftShoulder1  0.234509 2.78669 -26.511
LeftArm  -6.33059 15.1112 -38.7041
LeftForeArm  28.6785 -36.6242 -6.59623
LeftHand  -0.00535254 5.79712 5.74243
RightShoulder  -0.366414 -4.83845 20.4334
RightArm  -13.6762 31.5139 21.1455
RightForeArm  29.2459 14.5818 0.35366
RightHand  0.137153 4.58212 1.30514
LeftUpLeg  5.01544 4.75186 -9.02917
LeftLeg  11.8036 3.62619 -0.915906
LeftFoot  -15.091 0.354271 8.01622
LeftToes  1.648e-009 -9.21574e-011 2.55256e-011
899
root  -28.064 39.0386 -19.2654 12.4373 76.2939 14.99
RightUpLeg  -20.0509 -5.424 -3.33019
RightLeg  2.81502 5.74527 0.576506
RightFoot  -3.23019 -0.793937 10.7861
RightToes  -8.14909e-010 0 -3.6325e-017
Spine  6.30148 -0.47636 -0.364333
Spine1  8.8547 0.0502039 -2.3381
HEad  -25.0359 -59.0014 14.9816
LeftShoulder1  0.21446 2.85703 -26.9794
LeftArm  -6.74844 14.9881 -38.4534
LeftForeArm  29.0506 -37.2829 -6.75565
LeftHand  -0.0334376 5.14826 5.81347
RightShoulder  -0.356386 -4.83328 19.7517
RightArm  -14.2744 30.7776 21.0009
RightForeArm  28.822 14.8602 0.28326
RightHand  0.126821 4.56618 1.18706
LeftUpLeg  7.51694 5.03992 -9.07088
LeftLeg  12.1062 2.38125 -0.952488
LeftFoot  -17.0039 0.51884 8.39659
LeftToes  1.648e-009 -9.21574e-011 2.55256e-011
900
root  -26.5443 38.7435 -19.0526 11.3393 77.5123 14.1056
RightUpLeg  -19.6463 -4.84373 -2.39555
RightLeg  4.45372 3.53576 0.532839
RightFoot  -3.40949 -0.615506 8.79695
RightToes  -8.14909e-010 0 -3.6325e-017
Spine  5.55285 -0.702936 0.901765
Spine1  9.23988 -0.159949 -2.32533
HEad  -25.2712 -58.9045 14.9514
LeftShoulder1  0.20318 2.89202 -27.0492
LeftArm  -6.77277 15.3578 -38.1757
LeftForeArm  29.3695 -37.4042 -6.77019
LeftHand  -0.0534319 4.63748 5.0269
RightShoulder  -0.36682 -4.89039 19.3934
RightArm  -14.6226 30.3553 21.1311
RightForeArm  28.5646 14.8686 0.192737
RightHand  0.126081 4.7768 1.13485
LeftUpLeg  9.85745 5.41446 -8.65566
LeftLeg  13.4219 1.27133 -0.354519
LeftFoot  -19.1494 0.693518 8.45861
LeftToes  1.648e-009 -9.21574e-011 2.55256e-011
901
root  -25.003 38.5984 -18.8597 6.62692 78.9102 9.6593
RightUpLeg  -19.8001 -4.16666 -0.909097
RightLeg  9.36009 3.069 0.494433
RightFoot  1.2553 -0.204247 2.04408
RightToes  -8.14909e-010 0 -3.6325e-017
Spine  4.74293 -0.971658 3.61753
Spine1  10.0856 -0.299187 -2.51912
HEad  -24.4795 -59.3696 14.1722
LeftShoulder1  0.221868 2.82754 -26.6222
LeftArm  -6.69412 16.2773 -38.3975
LeftForeArm  29.3216 -36.8382 -6.61711
LeftHand  -0.0455861 4.85878 5.3985
RightShoulder  -0.429819 -5.10711 19.8441
RightArm  -14.6882 30.1441 20.7017
RightForeArm  28.6478 14.9194 0.208891
RightHand  0.0615595 4.24357 0.466674
LeftUpLeg  12.6131 5.46969 -7.36676
LeftLeg  14.0017 0.108957 0.0081214
LeftFoot  -20.0562 0.689946 7.49214
LeftToes  1.648e-009 -9.21574e-011 2.55256e-011
902
root  -23.4542 38.4395 -18.6382 -1.17532 80.586 1.97803
RightUpLeg  -20.2307 -3.12762 0.215192
RightLeg  14.4442 2.95736 0.539704
RightFoot  6.60754 0.150494 -0.796004
RightToes  -8.14909e-010 0 -3.6325e-017
Spine  4.33977 -1.44393 6.37118
Spine1  10.1046 -0.703286 -2.38782
HEad  -25.2537 -59.7154 14.4588
LeftShoulder1  0.15058 3.05627 -27.5511
LeftArm  -5.47703 16.7207 -37.4445
LeftForeArm  28.1754 -35.574 -6.34824
LeftHand  -0.0150644 5.59748 5.34556
RightShoulder  -0.426414 -5.07943 20.096
RightArm  -15.4267 29.7738 20.2169
RightForeArm  29.5614 15.0451 0.0541878
RightHand  0.057373 4.23457 0.418504
LeftUpLeg  13.0969 5.07374 -5.18304
LeftLeg  19.0544 -1.95376 -0.39857
LeftFoot  -20.6698 0.499311 4.67985
LeftToes  1.648e-009 -9.21574e-011 2.55256e-011
903
root  -21.9444 38.2665 -18.4099 -10.095 80.7855 -7.07336
RightUpLeg  -20.9236 -1.47057 1.26402
RightLeg  20.7333 1.12257 0.25758
RightFoot  2.97385 0.260463 -1.9054
RightToes  -8.14909e-010 0 -3.6325e-017
Spine  4.2007 -1.37561 9.17058
Spine1  9.84855 -0.320026 -2.6794
HEad  -25.8123 -60.4916 14.2916
LeftShoulder1  0.0613263 3.32665 -28.3097
LeftArm  -4.63436 16.9886 -37.4438
LeftForeArm  27.7881 -32.995 -5.71153
LeftHand  -0.0110734 5.75619 4.86858
RightShoulder  -0.43409 -5.09697 20.2944
RightArm  -16.1241 29.0979 19.663
RightForeArm  30.8899 15.4704 0.00411237
RightHand  0.0878394 3.69612 0.860486
LeftUpLeg  10.7257 5.72862 -2.46945
LeftLeg  28.7149 -4.58939 -2.45993
LeftFoot  -18.7685 0.136303 0.0345597
LeftToes  1.648e-009 -9.21574e-011 2.55256e-011
904
root  -20.5924 38.2084 -18.1251 -16.7084 81.6507 -13.8628
RightUpLeg  -20.4022 -1.96823 2.10038
RightLeg  24.3175 0.516705 0.0286487
RightFoot  -0.57025 0.230848 -2.4823
RightToes  -8.14909e-010 0 -3.6325e-017
Spine  4.8163 -1.60287 10.0226
Spine1  8.8698 -0.473976 -1.62553
HEad  -25.9954 -60.0379 14.9015
LeftShoulder1  0.0765994 3.27885 -27.9781
LeftArm  -4.16683 18.2881 -38.2761
LeftForeArm  26.8715 -29.998 -5.03872
LeftHand  -0.000470556 6.12602 4.35758
RightShoulder  -0.433652 -5.08351 20.4982
RightArm  -16.4408 28.6004 19.6634
RightForeArm  30.7163 15.1512 -0.219484
RightHand  0.106647 3.96866 1.06094
LeftUpLeg  5.97766 6.45815 0.355952
LeftLeg  40.4057 -7.25413 -6.16468
LeftFoot  -10.9189 0.120891 -6.05237
LeftToes  1.648e-009 -9.21574e-011 2.55256e-011
905
root  -19.3201 38.2005 -17.867 -25.9618 82.8987 -23.1608
RightUpLeg  -19.0512 -3.43276 2.87083
RightLeg  26.4383 0.22405 -0.117559
RightFoot  -3.76432 0.156557 -2.74599
RightToes  -8.14909e-010 0 -3.6325e-017
Spine  5.18794 -2.03021 10.6706
Spine1  8.62791 -0.816464 -0.546082
HEad  -27.1546 -59.3811 16.5938
LeftShoulder1  0.162036 3.02489 -27.6363
LeftArm  -2.69462 19.3019 -38.6529
LeftForeArm  25.5873 -27.8064 -4.61068
LeftHand  -0.00337611 6.01963 4.52081
RightShoulder  -0.460002 -5.15841 20.8895
RightArm  -16.2154 28.6291 19.3342
RightForeArm  29.3223 14.6458 -0.338876
RightHand  0.106759 3.06605 1.22703
LeftUpLeg  -0.326514 5.49208 2.32036
LeftLeg  51.8542 -6.41853 -8.18006
LeftFoot  1.97862 1.05847 -9.56775
LeftToes  1.648e-009 -9.21574e-011 2.55256e-011
